<svg version="1.1" ref="loader" id="loader" xmlns="http://www.w3.org/2000/svg" xmlns:xlink="http://www.w3.org/1999/xlink" x="0px" y="0px" viewBox="0 0 150 90" xml:space="preserve">
<path ref="pike" id="pike" d="M334.5,209.5c-11.7-1.7-24.4,0.1-36.1,2.3c-9.9,1.8-13.7,9.9-20.3,17.1c-6.4,7-20.1,25-22.8,6.3
	c-0.7-4.5-0.6-10.1,1.4-14.2c2.4-5.1,8.8-5.5,11.2-9.7c-9.6-3.3-22.2,0.2-32.1-0.2c-5.3-0.2-13.6-1.2-19.9-1.6
	c-6-0.4-11.6-0.2-17.5-1c-1.8-0.2-4-0.8-5.9-0.6c-5.6,0.5-10.4,4.3-15.1,7.2c-14.4,8.9-33,21.1-50.4,14.6
	c-17.3-6.4-14.4-35.1,4.2-37.3c-30.9-5-53.6,15.8-82.5,21c-19.1,3.4-10.9-18.7-6.1-28.7c4.8-9.9,9.2-13.4,2.8-23.2
	c-4.4-6.8-17.1-27.9-7.3-34.5c7.2-4.9,33.4,8.8,40.2,12.3c11.7,5.9,21.6,15.2,34.8,18.1c3.5,0.8,36.5-1.6,35.2-3.4
	c-1-1.4-10.3-0.9-12.8-1.2c-7.3-0.9-11.6-2-13-10.4c-2.5-15.2,8-23.8,20.5-29c17.3-7.3,28.5,2.9,41.9,13.1
	c7,5.3,14.5,12.4,22.9,14.7c10.3,2.9,23.8,1.3,34.4,1.1c45.2-0.9,90.6-0.9,135.7,2.8c22.5,1.8,44.7,6.4,66.3,13.1
	c9.8,3.1,18.7,8.3,28.5,11.3c2.8,0.8,26.7,5.3,25.9,9c-0.8,4-19.8,4.1-22.8,5.5c4.6,2.8,13.7-0.2,18.1-1c14.3-2.6,0.2,5.8-6.4,7.5
	c-17.1,4.3-35.3,9.4-52.7,11.6c-8.6,1.1-20.3,0.2-26.1,7.4c-6.8,8.5-7.9,20.4-15.9,28.5c-9.3,9.4-15.7,6.4-15.1-6.8
	c0.5-12,4.4-15.1,12.6-22.8c-14.9-1.2-32.9-0.3-47.7,1.2L334.5,209.5z"/>
<path ref="tarpon" id="tarpon" d="M292.7,225.7c-9.3,0-18.5,0.7-27.8,0.4c-7.5-0.3-15.1-2.4-22.3,0.7c-5.8,2.5-9.7,7.6-13.8,12.2
	c-5.1,5.7-10.5,11.2-16.4,16c-2.3,1.9-15.7,14.1-17,7.1c-0.5-3,1.8-7.6,2.6-10.4c1.1-3.9,2.3-7.9,3-11.9c1.3-7.8-3-11.8-8.9-16.1
	c-6.2-4.6-12.6-9-19.2-13c-6.6-4-13.4-7.7-20.6-10.7c-3.6-1.5-7.1-2.8-10.9-3.3c-3.7-0.5-7.5-1-10.6-3.3c5.7-0.3,11.4-0.7,17.2-1
	c-0.7-2.3-1.3-2.9-3.8-3.3c-2.4-0.4-4.9-0.7-7.4-0.9c-4.9-0.5-9.8-0.9-14.7-0.4c-10,0.9-18.5,5.7-26.4,11.4
	c-7.8,5.6-14.9,12.1-22.5,17.9c-8.2,6.3-16.8,12-25.6,17.2c-2.5,1.5-8.1,6.3-11.4,5.5c-4.2-1,0-6.3,1.1-8.2
	c4.4-7.9,8.8-15.8,13.6-23.5c4.8-7.7,9.9-15.1,15.7-22.1c4.3-5.2,13.3-11.6,11.5-19.3c-1-4.2-4.7-6.8-7.7-9.6
	c-2.9-2.7-5.6-5.5-8.2-8.4c-5.7-6.5-10.8-13.5-15.5-20.7c-4.4-6.8-8.1-14.1-12.9-20.6c-1.6-2.3-4.6-6.2-0.6-8.1
	c2.8-1.3,5.9,1.6,8.1,2.9c15.8,9.6,31.3,19,46,30.2c6.3,4.8,12.5,10.5,20,13.4c8.5,3.3,18.2,1.1,27,0.1c39.4-4.6,78.3-12,117.9-15
	c-35.3-2.1-70.7,2.7-104.6,12.3c2.9-3.7,7.7-4.5,12-5.9c12.1-3.8,24.7-6,37.3-7.7c6.4-0.8,12.9-1.5,19.3-2.2
	c5.4-0.6,11.4-0.6,16.5-2.5c8.6-3.2,15-11.7,15.4-20.9c0.2-5.7-2-11.4-3.6-16.8c-0.7-2.5-4.7-11.7-0.3-12.8
	c2.1-0.5,4.4,2.1,5.9,3.2c2.2,1.6,4.4,3.2,6.6,4.9c4.2,3.4,8.2,7.1,11.9,11.1c7.6,8.1,13.2,17.4,19.9,26.1c6.9,9,19.3,8.6,29.6,9.3
	c12.9,0.8,25.8,0.7,38.7,1.7c25.7,2.1,50.3,8.2,75.1,14.8c12.1,3.2,24.1,5.3,36.5,6.6c5.8,0.6,11.6,0,17.4,0.5
	c3,0.3,6.3,1.1,7.9,3.9c3.7,6.7-4.2,17.6-7.6,22.9c-5.4,8.4-12.3,15.6-21.1,20.5c-10.3,5.7-22.1,9.6-33.5,12.6
	c-6,1.6-12,2.9-18.1,4c-5.7,1-11.6,1.3-17.2,2.6c-5.6,1.3-10.4,3.9-16.3,4.3c-6.3,0.5-12.6-0.4-18.8-0.4c-12.8,0.1-25.7,1.1-38.4,2
	c-11.4,0.7-17.7,9.4-26.5,15.5c-1.6,1.1-3.8,3.8-5.9,3.2c-2.4-0.7-1.3-2.5-0.7-4.1C291.3,235.1,290.3,230.3,292.7,225.7
	C279.3,225.7,290.2,230.5,292.7,225.7z"/>
<path ref="seabass" id="seabass" d="M307.3,222.6c-0.7,5.4-52.3-4.9-57.9-4.5c-7.9,0.5-8.4,9.2-14.6,12c-0.2,0.1-1.7,1.1-2.1,1.3
	c0.7-0.4-2-1.7-2.4-1.5c-0.5,0.1-1.1,2.8-1.8,3.4c-1.3,1.2-2.6,1.1-4.2,1.6c-5.4,1.6-8.5,3.9-13.4-0.2c-7.2-6-13.4-14.9-19.9-21.8
	c-3.4-3.6-6.7-7.2-9.8-11c0.1,0.1-2.7-2.9-2.8-3.6c-0.7-3,1.9-2.6,1.8-4.8c-0.1-4.4-17.4-5.2-20.9-5.4
	c-20.2-1.1-35.8,8.1-53.4,16.2c-8.3,3.8-16.8,7.3-25.5,10.2c-2.6,0.8-9.8,4.5-12.7,3.4c-4.1-1.6-2.4-3-0.3-7.3
	c4-8.3,7.7-16.8,12-24.9c4.8-9,10.1-13.6,3.5-22.9c-5.1-7.1-11.5-13.7-16.1-21.2c-1.6-2.6-5.4-9.5-5.6-12.5c-0.2-4.7,2-4.1,6.3-3.1
	c10.9,2.5,21.9,6.4,32.4,10.4c10.5,4,20.1,10,30.5,14.1c19.8,7.9,44.1,2.4,63.8-2.9c-6.5-5.8-4.5-8.3,0.9-14.3
	c5.8-6.5,11.9-12.7,18.5-18.4c5.1-4.3,11.4-12.2,18.8-11c6.8,1.1,14.4,8.3,20.2,12c3,1.9,6,3.8,8.8,6c2.9,2.2,5.7,6.1,8.8,7.8
	c3.4,1.8,7.1,0.9,10.8,0.5c4.4-0.4,3.5-0.7,5.6-2.2c-0.2,0.2,0.3-1.6,0.4-1.8c0.3-0.5,2.4,0.6,2.8-0.3c0.6-1.2-1.7-2.3-1-3.5
	c0.6-1,3-0.4,3.9-1.9c1.2-2-1.3-6.6-2.1-8.3c2.2-1.2,3.2,2.9,5.7,1.4c3.7-2.3-1.2-7-2-9.1c2.5-1,3.2,3.3,5.5,3.2
	c5.2-0.3,1.1-7.5,0-9.6c2.5-1.2,3.8,4.4,6.3,4.2c6-0.5,2-9.4,0.9-11.8c2.2,0,3.3,2.7,4.6,4.1c2.3,2.5,4.9,4.5,8.2,5.7
	c5.2,2,5.4,0.3,6-4.9c3,4,3.6,9.7,7.4,13.1c3.5,3.2,7.7,1.3,10.4,4.2c3.4,3.7,3.2,10.6,5.8,14.8c2.8,4.4,7.9,4.7,12.6,5.3
	c28.3,4.1,54.4,11.4,80.3,23.7c12.2,5.8,24.4,12.2,35.9,19.1c3.7,2.2,6.4,3.3,6.9,7.7c0-0.2-1.2,2.3-1,3c0.1,0.5,1.6,0.5,1.8,1
	c0.6,2.8,2.4,1.4,0.6,5.4c-4.7,10.2-21,12.9-30.4,15.6c-14,4-28.3,7.1-42.6,9.5c-7.7,1.3-15.5,2.3-23.2,3.4
	c-5.8,0.8-12.2,0-17.7,2.3c-5.2,2.2-8.8,6.5-11.7,11.1c-4.4,6.8-8.9,13.4-14,19.7c-0.6-3.1,2.6-5.3,3.1-8.1
	c-2.8,2.1-11.6,11.3-15.5,10.7c-3.6-0.6-3.6-5.9-3.9-9.2c-0.4-5.1,0.6-10.4,3.7-14.6c1.9-2.6,9.6-5.4,9.5-8.2
	c-11.1-2.3-23.2,3.5-33.9-2.2"/>
<path ref="permit" id="permit" d="M351.7,239.8c-14.5,1-30-1.5-44.2,1.5c-10.9,2.3-21.8,7.9-32.4,10c0.1-0.2-17.4,13.5-20.4,16.2
	c-5.9,5.2-12.1,10.5-18.8,14.5c-1.7,1-18.2,5.7-17.2,4.6c8-9.3,24.7-21.3,19.7-35.1c-3.4-9.4-19.1-16.9-26.8-22.5
	c-9.6-7-20-12.3-29.8-19.1c-3-2.1-29-16.5-28.5-20c0.1-0.8,11-1.2,12.4-1.7c-24.8-15.2-41.9,10.7-57.6,25.5
	c-8.3,7.8-16.7,16.4-25.9,23.1c-2.6,1.9-24.8,14.2-26.6,6.8c-0.3-1.2,12.4-8.5,13.9-10.2c6.2-6.8,10.5-16.6,14.9-24.6
	c7.9-14.5,22.9-30.8,14.5-48.1c-4-8.3-12.5-15.7-17.5-23.6c-4.7-7.5-9-15.1-14.8-21.9c-4.7-5.5-8.7-12.8-13.8-17.6
	c-1.4-1.3-14.1-7.4-12.8-9.9c5.1-9.7,57.7,35.7,60.9,38.5c10.5,9.2,20,20.6,31.3,28.7c5.5,3.9,10.4,5.8,17.1,6.1
	c0.9,0,12-0.2,11.5-2.1c-0.5-2.1-9.5,0.9-9.8-1.3c-0.3-2.8,11.5-8.3,13.6-9.7c5.5-3.7,10.1-7,15.6-11.5
	c11.7-9.5,24.3-18.2,37.7-26.3c13.4-8,28.6-16.1,17.4-33.9c-6-9.4-15.5-17.8-25.7-22.2c-3.2-1.4-33.1-11.3-32.2-13.4
	c3.3-7.2,56,18.4,60.5,21.5c10.6,7.2,31.4,30.5,42.7,26.9c1.1-0.3,3,2.5,4.6,2.6c3.2,0.2,0.7-1.3,2.8-2.1c-0.1,0,6,2.3,6.1,2.3
	c2,0.2,1.9-2.3,2.7-2.5c-1,0.3,7.5,3.2,6.7,3c0.7,0.2,0.8-2.5,1.2-2.7c0.5-0.2,2.9,2.8,3.1,2.8c2.7-0.4,2.8-2.6,3.9-3
	c0.9-0.3,2.3,3.3,3.7,3.4c2.5,0.1,1.8-1.5,3.4-2.2c3-1.4,3.4,5.6,7,0.7c-1.1,1.4,21.1,4.1,22.1,4.2c9.9,1,19.6,2.5,29.3,4.6
	c19,4,36.8,8.3,52.8,19.8c14,10.1,29.8,24.7,38.6,39.7c4.3,7.2,12.3,32.6,0.5,36.7c7,5,4.6,5.9-3.1,11.1
	c-7.6,5.1-15.7,7.9-24.4,10.3c-18.2,5-35.9,10.9-54.3,15.3c-5.6,1.3-17.9,1.9-21.9,5.9c-3.6,3.5-3.6,21.8-10.9,22.4
	c-2.6,0.2-5.7-7.5-6.5-9.3C344.2,242.8,347.6,247.8,351.7,239.8C349.4,240,351.4,240.4,351.7,239.8z"/>
<path ref="trout" id="trout" d="M283,241.5c0.1-0.7-0.1-1.2-0.8-1.4c-1.1,0.2-1.3,3.2-1.8,4c-1.1,1.6-4.2,3.3-5.7,4.8
	c-3.3,3.2-9.8,9.7-12.4,2.5c-1.5-4.2,0.7-11.9,1.7-16.1c0.2-0.7,1.4-0.8,1.6-1.3c0.2-0.9-0.1-1.9,0-2.8c0-0.3,0.8-7.9,1.8-7.2
	c-2-1.3-6.4-0.8-8.8-1.2c-3.8-0.6-7.6-1.3-11.4-1.8c-7.4-0.9-14.9-1.6-22.4-2c-14.9-0.7-26.2,9.5-39,15.9
	c-5.8,2.9-12.5,6.8-18.7,8.5c-8.3,2.4-8.7-4.9-10.9-11c-2.5-7-3.2-12.6-2.8-20.1c0.2-3.4-0.7-4.9,2.4-6.3c0.2-0.1,9.5-0.9,8.6-2.4
	c-1.9-3.1-16.4-3.3-19.8-3.5c-7.7-0.4-14.6,0.9-21.8,3.2c-15.4,4.8-30.3,10.9-46.3,12.8c-3.6,0.4-7.1,1-10.7,1
	c-3.6,0-4.6,0.6-4.6-2.3c0-3.1,2-8,2.7-11.2c0.9-3.8,2.6-5.5,4-8.8c1-2.3,1.1-5.8,1.9-8.4c1.1-3.7,1.8-6.4,0.5-10.2
	c-1.2-3.6-7.5-13.9-2.7-16c-3.4-2.2-2.5-8.7-2.4-12.1c0.1-4.8-1.5-11.1,4.5-11.4c10.4-0.5,21.8,5.8,30.8,10
	c9.2,4.4,17.1,11.8,27.1,14.4c5.4,1.4,10.9,2.1,16.5,2.1c4,0,11.2,0.9,14.7-1.1c-3.3-1-10.9-1.3-9.4-6.1c1.5-5.1,11.5-3.4,14.7-2.7
	c5.8,1.3,10.7,4,16.8,3.6c5-0.3,9.9-1,14.8-1.7c11-1.6,22.1-2.8,33-4.9c5.8-1.1,11.6-1.7,17.5-2.6c2.9-0.5,10.8-0.5,12.7-2.6
	c-4.2-1.1-8.5-1.8-12.6-3.2c-4.9-1.6-4.4-3.5-1-6.9c3-2.9,6.6-5.1,9.5-8.2c2.6-2.9,1.6-1.4,3.7-2.9c0.4-0.3,1.6,1.3,2.1,0.5
	c-0.1,0.2-1.1-2.5-0.9-3.5c0.7-2.5,5-4.9,6.5-7c1.7-2.3,2.5-4.9,4.9-6.7c1-0.7,1.3-1.5,2.4-2.1c0.7-0.4,2.1,1.4,2.7,0.3
	c0.4-0.7-1.2-2.2-0.9-3.4c0.3-1.3,1.3-2.4,2.5-2.8c3.2-1,10.1,5.2,12.5,7c9.4,7.2,18.1,15.6,26.5,23.9c4.1,4.1,6.8,6.2,12.7,6.8
	c5.6,0.6,11.3,0.4,17,0.4c13,0.2,26,1.3,38.9,3.1c22.8,3.1,44.5,9.6,66.7,15.6c10.9,2.9,22.4,7.2,31.6,13.7c3,2.1,8.2,5.9,6.2,10.3
	c-0.8,1.9-8.8,4.9-8.7,5.5c0.7,3,12.3-4.5,9.1,4c-1.7,4.6-10.3,7.5-14.3,8.9c-12.1,4.3-25.4,7.8-38,9.7c-5,0.7-9.4,2.1-14.3,3.5
	c-5.8,1.6-12.7,1.8-18.3,4.2c-9.9,4.3-11.9,20.2-21.9,24.4c-5.9,2.5-6.4-4-6.5-8.2c0-1.5,1-7.9,0.2-8.9c-1.3-1.7-3.7-0.4-6,0
	c-12.2,2.1-25,3.7-37.3,4.4c-7.1,0.4-14.4,0.5-21.5,0.3c-2.1-0.1-6.4-1.2-8-0.5c-2,0.9-2.4,2.7-3.8,4.6c-1.9,2.7-5.8,10.3-9.9,8.5
	c-1.7-0.7-1.2-3.7-3.4-3.6C286.5,237.4,283,240.6,283,241.5C282.8,240.9,283,240.5,283,241.5z"/>
</svg>
