<?xml version="1.0" encoding="utf-8"?>
<svg version="1.1" id="logo" xmlns="http://www.w3.org/2000/svg" xmlns:xlink="http://www.w3.org/1999/xlink" x="0px" y="0px"
	 viewBox="22.8 16.2 976.8 120.5" style="enable-background:new 22.8 16.2 976.8 120.5;" xml:space="preserve">
<style type="text/css">
	.st0{fill:#000000;}
	.st1{fill:#B00000;}
	.st2{fill:#000000;}
</style>
<g id="_x30_031flyfishing">
	<path class="st0" d="M90.7,57.6v38.5c0,8.7-0.5,15.1-1.4,19.1c-1,4-2.9,7.7-5.9,11.2c-3,3.5-6.6,6-10.8,7.5
		c-4.2,1.5-9,2.3-14.2,2.3c-6.9,0-12.6-0.8-17.2-2.4s-8.2-4.1-10.9-7.4c-2.7-3.4-4.6-6.9-5.8-10.7c-1.1-3.7-1.7-9.7-1.7-17.8V57.6
		c0-10.6,0.9-18.5,2.7-23.8c1.8-5.3,5.5-9.5,10.9-12.7c5.4-3.2,12-4.8,19.8-4.8c6.3,0,12,1.1,17,3.3s8.7,4.9,11.2,8.1
		c2.5,3.2,4.1,6.8,5,10.8C90.3,42.5,90.7,48.9,90.7,57.6z M61.9,48c0-6.1-0.3-10-0.9-11.5c-0.6-1.5-2-2.3-4.2-2.3
		c-2.1,0-3.6,0.8-4.2,2.5c-0.7,1.6-1,5.4-1,11.4v56.3c0,6.7,0.3,10.7,1,12.1c0.6,1.4,2,2.1,4.2,2.1s3.5-0.8,4.2-2.4
		c0.7-1.6,1-5.3,1-10.9L61.9,48L61.9,48z"/>
	<path class="st0" d="M169,57.6v38.5c0,8.7-0.5,15.1-1.4,19.1c-1,4-2.9,7.7-5.9,11.2c-3,3.5-6.6,6-10.8,7.5c-4.2,1.5-9,2.3-14.2,2.3
		c-6.9,0-12.6-0.8-17.2-2.4s-8.2-4.1-10.9-7.4c-2.7-3.4-4.6-6.9-5.8-10.7c-1.1-3.7-1.7-9.7-1.7-17.8V57.6c0-10.6,0.9-18.5,2.7-23.8
		c1.8-5.3,5.5-9.5,10.9-12.7c5.4-3.2,12-4.8,19.8-4.8c6.3,0,12,1.1,17,3.3s8.7,4.9,11.2,8.1c2.5,3.2,4.1,6.8,5,10.8
		C168.6,42.5,169,48.9,169,57.6z M140.2,48c0-6.1-0.3-10-0.9-11.5c-0.6-1.5-2-2.3-4.2-2.3c-2.1,0-3.6,0.8-4.2,2.5
		c-0.7,1.6-1,5.4-1,11.4v56.3c0,6.7,0.3,10.7,1,12.1c0.6,1.4,2,2.1,4.2,2.1s3.5-0.8,4.2-2.4c0.7-1.6,1-5.3,1-10.9L140.2,48L140.2,48
		z"/>
	<path class="st0" d="M233.5,68.6c4.4,1.5,7.6,3.9,9.8,7.2c2.1,3.4,3.2,11.2,3.2,23.6c0,9.2-1,16.3-3.1,21.4
		c-2.1,5.1-5.7,8.9-10.8,11.6s-11.7,4-19.7,4c-9.1,0-16.3-1.5-21.5-4.6s-8.6-6.8-10.3-11.3c-1.6-4.4-2.5-12.2-2.5-23.1v-9.1h28.8
		v18.8c0,5,0.3,8.2,0.9,9.5c0.6,1.4,1.9,2,4,2c2.2,0,3.7-0.9,4.4-2.6s1.1-6.2,1.1-13.4v-8c0-4.4-0.5-7.7-1.5-9.7s-2.5-3.4-4.4-4
		c-1.9-0.6-5.7-1-11.3-1.1V62.9c6.8,0,11.1-0.3,12.7-0.8c1.6-0.5,2.8-1.7,3.5-3.4c0.7-1.8,1.1-4.5,1.1-8.3V44c0-4-0.4-6.7-1.2-8
		c-0.8-1.3-2.1-1.9-3.9-1.9c-2,0-3.4,0.7-4.1,2c-0.7,1.4-1.1,4.2-1.1,8.7v9.5h-28.8v-9.8c0-11,2.5-18.5,7.6-22.3
		c5-3.9,13-5.8,24-5.8c13.7,0,23.1,2.7,27.9,8c4.9,5.4,7.3,12.8,7.3,22.4c0,6.5-0.9,11.1-2.6,14C241,63.6,237.9,66.2,233.5,68.6z"/>
	<path class="st0" d="M301.2,18.6V134h-28.8V72.1c0-8.9-0.2-14.3-0.6-16.1s-1.6-3.2-3.5-4.1s-6.2-1.4-12.9-1.4h-2.9V37.1
		c13.9-3,24.5-9.2,31.7-18.5C284.2,18.6,301.2,18.6,301.2,18.6z"/>
	<path class="st1" d="M313.2,18.6h50.8v23.1h-20.8v21.9h18.5v22h-18.5V134h-30V18.6z"/>
	<path class="st1" d="M401.3,18.6v92.3h18.2V134h-48.3V18.6H401.3z"/>
	<path class="st1" d="M481.3,18.6l-21.9,73.6V134h-27.8V92.2l-21.1-73.6h27.6c4.3,22.5,6.7,37.7,7.3,45.5
		c1.7-12.3,4.4-27.5,8.4-45.5C453.8,18.6,481.3,18.6,481.3,18.6z"/>
	<path class="st1" d="M486.5,18.6h50.8v23.1h-20.8v21.9H535v22h-18.5V134h-30L486.5,18.6L486.5,18.6z"/>
	<path class="st1" d="M574.6,18.6V134h-30V18.6H574.6z"/>
	<path class="st1" d="M650.2,53.5h-27.9V45c0-4-0.4-6.5-1.1-7.6c-0.7-1.1-1.9-1.6-3.6-1.6c-1.8,0-3.2,0.7-4.1,2.2
		c-0.9,1.5-1.4,3.7-1.4,6.7c0,3.9,0.5,6.8,1.6,8.7c1,2,3.8,4.3,8.5,7.1c13.4,7.9,21.8,14.4,25.2,19.5c3.5,5.1,5.2,13.3,5.2,24.6
		c0,8.2-1,14.3-2.9,18.2c-1.9,3.9-5.6,7.2-11.2,9.8c-5.5,2.6-11.9,4-19.2,4c-8,0-14.9-1.5-20.6-4.6c-5.7-3-9.4-6.9-11.2-11.6
		c-1.8-4.7-2.6-11.4-2.6-20v-7.6h27.9v14c0,4.3,0.4,7.1,1.2,8.3c0.8,1.2,2.2,1.9,4.2,1.9s3.5-0.8,4.5-2.4c1-1.6,1.5-3.9,1.5-7
		c0-6.8-0.9-11.2-2.8-13.3c-1.9-2.1-6.6-5.6-14-10.5c-7.5-4.9-12.4-8.5-14.8-10.8c-2.4-2.2-4.4-5.3-6-9.3c-1.6-3.9-2.4-9-2.4-15.1
		c0-8.8,1.1-15.3,3.4-19.4c2.3-4.1,5.9-7.3,10.9-9.6c5-2.3,11.1-3.5,18.2-3.5c7.8,0,14.4,1.3,19.9,3.8c5.5,2.5,9.1,5.7,10.9,9.5
		c1.8,3.8,2.7,10.3,2.7,19.5L650.2,53.5L650.2,53.5z"/>
	<path class="st1" d="M731.1,18.6V134h-30V85.5h-9V134h-30V18.6h30v41.3h9V18.6H731.1z"/>
	<path class="st1" d="M773.2,18.6V134h-30V18.6H773.2z"/>
	<path class="st1" d="M852.2,18.6V134h-26.3l-15.6-52.5V134h-25.1V18.6h25.1l16.8,52v-52H852.2z"/>
	<path class="st1" d="M933.2,61.1h-30V50.6c0-6.6-0.3-10.7-0.9-12.4c-0.6-1.7-1.9-2.5-4.1-2.5c-1.9,0-3.1,0.7-3.8,2.1
		c-0.7,1.4-1,5.1-1,11v55.4c0,5.2,0.3,8.6,1,10.2c0.7,1.6,2,2.5,4,2.5c2.2,0,3.7-0.9,4.5-2.8c0.8-1.9,1.2-5.5,1.2-10.8V89.6H898V72
		h35.1v62h-18.9l-2.8-8.3c-2,3.6-4.6,6.2-7.7,8c-3.1,1.8-6.8,2.7-11,2.7c-5,0-9.8-1.2-14.2-3.7c-4.4-2.4-7.7-5.5-10-9.1
		c-2.3-3.6-3.7-7.4-4.3-11.4c-0.6-4-0.9-9.9-0.9-17.9V60.1c0-11,0.6-19,1.8-24s4.6-9.6,10.2-13.7c5.6-4.2,12.9-6.2,21.9-6.2
		c8.8,0,16.1,1.8,21.9,5.4c5.8,3.6,9.6,7.9,11.3,12.9c1.8,5,2.6,12.2,2.6,21.6L933.2,61.1L933.2,61.1z"/>
</g>
<g id="com">
	<path class="st2" d="M968.1,103.7v14h-9.3c-2.7,0-4.4,0.1-5.1,0.4c-0.7,0.3-1,1-1,2c0,1.2,0.4,1.9,1.2,2.2c0.8,0.3,2.6,0.5,5.3,0.5
		h25c2.6,0,4.3-0.2,5.1-0.5c0.8-0.3,1.2-1,1.2-2.1c0-1-0.4-1.7-1.2-2c-0.8-0.3-2.7-0.5-5.6-0.5h-6.8v-14h2.1c5.6,0,9.5,0.4,11.8,1.2
		c2.3,0.8,4.4,2.5,6.1,5.2s2.6,6,2.6,9.9c0,4.1-0.7,7.5-2.2,10.1c-1.5,2.7-3.5,4.4-6.2,5.3s-6.6,1.3-11.8,1.3h-15.7
		c-3.9,0-6.8-0.1-8.7-0.4c-1.9-0.3-3.8-1.1-5.6-2.4c-1.8-1.3-3.2-3.1-4.2-5.5c-1-2.3-1.5-5-1.5-8.1c0-4.1,0.8-7.5,2.4-10.2
		c1.6-2.7,3.6-4.4,6-5.3c2.4-0.8,6.1-1.3,11.1-1.3C963,103.7,968.1,103.7,968.1,103.7z"/>
	<path class="st2" d="M976.2,66.7c5.4,0,9.2,0.1,11.5,0.4c2.2,0.3,4.3,1.1,6.2,2.4c1.9,1.3,3.3,3.1,4.3,5.4c1,2.3,1.5,4.9,1.5,8
		c0,2.9-0.5,5.5-1.4,7.8s-2.4,4.1-4.2,5.5c-1.9,1.4-3.9,2.2-6.1,2.5s-6.1,0.4-11.6,0.4H967c-5.4,0-9.2-0.1-11.5-0.4
		c-2.2-0.3-4.3-1.1-6.2-2.4c-1.9-1.3-3.3-3.1-4.3-5.4c-1-2.3-1.5-4.9-1.5-8c0-2.9,0.5-5.5,1.4-7.8c0.9-2.3,2.4-4.1,4.2-5.5
		c1.9-1.4,3.9-2.2,6.1-2.5c2.2-0.3,6.1-0.4,11.6-0.4H976.2z M958.5,80.7c-2.5,0-4.1,0.1-4.8,0.4c-0.7,0.3-1,0.8-1,1.7
		c0,0.7,0.3,1.3,0.8,1.7c0.6,0.4,2.2,0.6,5,0.6h25.1c3.1,0,5-0.1,5.8-0.4c0.7-0.3,1.1-0.8,1.1-1.8c0-1-0.4-1.6-1.3-1.8
		c-0.8-0.3-2.8-0.4-6-0.4L958.5,80.7L958.5,80.7z"/>
	<path class="st2" d="M944.7,18.4h53.8v12.2l-36.3,0l36.3,4.9v8.7L963,49.3l35.5,0v12.2h-53.8V43.4c3.2-0.5,7-1.1,11.4-1.7l13.7-2
		l-25.1-3.2V18.4z"/>
</g>
</svg>
